<svg aria-hidden="true" style="position: absolute; width: 0; height: 0; overflow: hidden;" version="1.1" xmlns="http://www.w3.org/2000/svg" xmlns:xlink="http://www.w3.org/1999/xlink">
<defs>
<symbol id="icon-arrow-up" viewBox="0 0 32 32">
<path stroke-linejoin="round" stroke-linecap="round" stroke-miterlimit="4" stroke-width="2.6667" d="M22.667 18.667l-6-6.667-6 6.667"></path>
</symbol>
<symbol id="icon-cube" viewBox="0 0 32 32">
<path fill="#1ec6a7" style="fill: var(--color1, #1ec6a7)" d="M6.222 6.222h4.513v4.513h-4.513v-4.513zM6.222 13.744h4.513v4.513h-4.513v-4.513zM10.735 21.265h-4.513v4.513h4.513v-4.513zM13.744 6.222h4.513v4.513h-4.513v-4.513zM18.257 13.744h-4.513v4.513h4.513v-4.513zM13.744 21.265h4.513v4.513h-4.513v-4.513zM25.778 6.222h-4.513v4.513h4.513v-4.513zM21.265 13.744h4.513v4.513h-4.513v-4.513zM25.778 21.265h-4.513v4.513h4.513v-4.513z"></path>
</symbol>
<symbol id="icon-arrow-next" viewBox="0 0 32 32">
<path fill="none" stroke="#8f8f8f" style="stroke: var(--color2, #8f8f8f)" stroke-linejoin="miter" stroke-linecap="butt" stroke-miterlimit="4" stroke-width="2.5263" d="M10.947 26.105l10.105-10.105-10.105-10.105"></path>
</symbol>
<symbol id="icon-arrow-prev" viewBox="0 0 32 32">
<path fill="none" stroke="#8f8f8f" style="stroke: var(--color2, #8f8f8f)" stroke-linejoin="miter" stroke-linecap="butt" stroke-miterlimit="4" stroke-width="2.5263" d="M21.053 5.895l-10.105 10.105 10.105 10.105"></path>
</symbol>
<symbol id="icon-arrow-down" viewBox="0 0 32 32">
<path fill="none" stroke-linejoin="miter" stroke-linecap="butt" stroke-miterlimit="4" stroke-width="3" d="M10 12l7 7 7-7"></path>
</symbol>
<symbol id="icon-arrow-right" viewBox="0 0 30 32">
<path fill="none" stroke-linejoin="miter" stroke-linecap="butt" stroke-miterlimit="4" stroke-width="2.8235" d="M12.706 22.118l6.588-6.588-6.588-6.588"></path>
</symbol>
<symbol id="icon-email" viewBox="0 0 32 32">
<path fill="#1ec6a7" style="fill: var(--color1, #1ec6a7)" d="M8 9c-0.548 0-1 0.452-1 1v12c0 0.548 0.452 1 1 1h16c0.548 0 1-0.452 1-1v-12c0-0.548-0.452-1-1-1h-16zM5 10c0-1.652 1.348-3 3-3h16c1.652 0 3 1.348 3 3v12c0 1.652-1.348 3-3 3h-16c-1.652 0-3-1.348-3-3v-12z"></path>
<path fill="#1ec6a7" style="fill: var(--color1, #1ec6a7)" d="M5.181 9.427c0.317-0.452 0.94-0.563 1.393-0.246l9.427 6.599 9.427-6.599c0.452-0.317 1.076-0.207 1.393 0.246s0.207 1.076-0.246 1.393l-10 7c-0.344 0.241-0.803 0.241-1.147 0l-10-7c-0.452-0.317-0.563-0.94-0.246-1.393z"></path>
</symbol>
<symbol id="icon-location" viewBox="0 0 32 32">
<path fill="#1ec6a7" style="fill: var(--color1, #1ec6a7)" d="M16 6c-2.122 0-4.157 0.843-5.657 2.343s-2.343 3.535-2.343 5.657c0 3.098 2.016 6.104 4.226 8.437 1.085 1.145 2.173 2.082 2.991 2.734 0.304 0.242 0.57 0.444 0.783 0.602 0.213-0.157 0.479-0.359 0.783-0.602 0.818-0.651 1.906-1.589 2.991-2.734 2.21-2.333 4.226-5.339 4.226-8.437 0-2.122-0.843-4.157-2.343-5.657s-3.535-2.343-5.657-2.343zM16 27c-0.555 0.832-0.555 0.832-0.555 0.832l-0.003-0.002-0.007-0.004-0.023-0.015c-0.019-0.013-0.047-0.032-0.083-0.057-0.071-0.049-0.173-0.121-0.302-0.214-0.257-0.186-0.621-0.457-1.057-0.804-0.869-0.692-2.031-1.693-3.197-2.923-2.29-2.417-4.774-5.911-4.774-9.813 0-2.652 1.054-5.196 2.929-7.071s4.419-2.929 7.071-2.929c2.652 0 5.196 1.054 7.071 2.929s2.929 4.419 2.929 7.071c0 3.902-2.484 7.396-4.774 9.813-1.165 1.23-2.327 2.23-3.197 2.923-0.436 0.347-0.8 0.618-1.057 0.804-0.129 0.093-0.231 0.165-0.302 0.214-0.035 0.025-0.063 0.044-0.083 0.057l-0.023 0.015-0.007 0.004-0.002 0.001c-0 0-0.001 0.001-0.556-0.831zM16 27l0.555 0.832c-0.336 0.224-0.774 0.224-1.11-0l0.555-0.832z"></path>
<path fill="#1ec6a7" style="fill: var(--color1, #1ec6a7)" d="M16 12c-1.105 0-2 0.895-2 2s0.895 2 2 2 2-0.895 2-2c0-1.105-0.895-2-2-2zM12 14c0-2.209 1.791-4 4-4s4 1.791 4 4c0 2.209-1.791 4-4 4s-4-1.791-4-4z"></path>
</symbol>
<symbol id="icon-phone" viewBox="0 0 32 32">
<path fill="#1ec6a7" style="fill: var(--color1, #1ec6a7)" d="M24 26.9c-0.1 0-0.2 0-0.3 0-3.2-0.4-6.4-1.5-9.1-3.2-2.5-1.6-4.7-3.8-6.3-6.3-1.8-2.7-2.9-5.9-3.2-9.1 0-0.8 0.2-1.6 0.7-2.2s1.2-1 2-1.1c0.1 0 0.2 0 0.3 0h3c1.5 0 2.8 1.1 3 2.6 0.1 0.9 0.3 1.8 0.6 2.6 0.4 1.1 0.1 2.3-0.7 3.2l-0.7 0.7c1.2 1.8 2.7 3.4 4.6 4.6l0.7-0.7c0.8-0.8 2.1-1.1 3.2-0.7 0.8 0.3 1.7 0.5 2.6 0.6 1.5 0.2 2.6 1.5 2.6 3v3c0 0.8-0.3 1.6-0.9 2.1s-1.3 0.9-2.1 0.9zM11.1 7h-3c-0.3 0-0.6 0.2-0.8 0.4-0.1 0.2-0.2 0.4-0.2 0.7 0.3 2.9 1.3 5.7 2.9 8.2 1.5 2.3 3.4 4.3 5.7 5.7 2.5 1.6 5.3 2.6 8.2 2.9 0.4 0 0.6-0.1 0.8-0.3s0.3-0.4 0.3-0.7v-3c0-0.5-0.4-0.9-0.9-1-1-0.1-2-0.4-3-0.8-0.4-0.1-0.8-0.1-1.1 0.2l-1.3 1.3c-0.3 0.3-0.8 0.4-1.2 0.2-2.7-1.5-4.9-3.7-6.4-6.4-0.1-0.4 0-0.9 0.3-1.2l1.3-1.3c0.2-0.2 0.3-0.7 0.2-1-0.4-1-0.6-2-0.8-3 0-0.5-0.5-0.9-1-0.9zM23 14c-0.5 0-0.9-0.3-1-0.8-0.3-1.6-1.6-2.8-3.2-3.2-0.5-0.1-0.9-0.6-0.8-1.2 0.1-0.5 0.6-0.9 1.2-0.8 2.4 0.5 4.3 2.3 4.7 4.7 0.1 0.5-0.2 1.1-0.8 1.2 0 0 0 0.1-0.1 0.1zM27 13.9c-0.5 0-0.9-0.4-1-0.9-0.4-3.7-3.3-6.6-7.1-7.1-0.5-0.1-0.9-0.6-0.9-1.1s0.6-0.9 1.1-0.9c4.7 0.5 8.3 4.1 8.8 8.8 0.1 0.5-0.3 1-0.9 1.1 0.1 0.1 0 0.1 0 0.1z"></path>
</symbol>
<symbol id="icon-shopping-cart" viewBox="0 0 32 32">
<path d="M9.333 28c0-1.473 1.194-2.667 2.667-2.667s2.667 1.194 2.667 2.667c0 1.473-1.194 2.667-2.667 2.667s-2.667-1.194-2.667-2.667z"></path>
<path d="M24 28c0-1.473 1.194-2.667 2.667-2.667s2.667 1.194 2.667 2.667-1.194 2.667-2.667 2.667c-1.473 0-2.667-1.194-2.667-2.667z"></path>
<path d="M0 1.333c0-0.736 0.597-1.333 1.333-1.333h5.333c0.636 0 1.183 0.449 1.307 1.072l1.12 5.595h21.573c0.397 0 0.774 0.177 1.027 0.483s0.357 0.709 0.282 1.1l-2.135 11.197c-0.183 0.921-0.684 1.748-1.415 2.337-0.728 0.586-1.637 0.898-2.571 0.884h-12.937c-0.934 0.015-1.843-0.298-2.571-0.884-0.731-0.588-1.232-1.415-1.415-2.336-0-0 0 0 0 0l-2.227-11.129c-0.009-0.037-0.017-0.074-0.022-0.112l-1.109-5.54h-4.24c-0.736 0-1.333-0.597-1.333-1.333zM9.628 9.333l1.92 9.594c0.061 0.307 0.228 0.583 0.472 0.779s0.549 0.3 0.862 0.295l0.026-0 12.986 0c0.313 0.006 0.618-0.098 0.862-0.295 0.243-0.195 0.409-0.469 0.471-0.775l1.83-9.598h-19.427z"></path>
</symbol>
<symbol id="icon-star" viewBox="0 0 32 32">
<path d="M16 1.333c0.508 0 0.971 0.288 1.196 0.743l3.81 7.719 8.52 1.245c0.502 0.073 0.919 0.425 1.075 0.908s0.026 1.012-0.338 1.366l-6.164 6.004 1.455 8.482c0.086 0.5-0.12 1.006-0.53 1.304s-0.955 0.338-1.404 0.101l-7.619-4.007-7.619 4.007c-0.449 0.236-0.994 0.197-1.404-0.101s-0.616-0.804-0.53-1.304l1.455-8.482-6.164-6.004c-0.363-0.354-0.495-0.884-0.338-1.366s0.573-0.835 1.075-0.908l8.52-1.245 3.81-7.719c0.225-0.455 0.688-0.743 1.196-0.743zM16 5.679l-2.924 5.924c-0.194 0.393-0.569 0.666-1.003 0.729l-6.542 0.956 4.732 4.609c0.315 0.306 0.458 0.748 0.384 1.18l-1.117 6.51 5.848-3.076c0.389-0.204 0.853-0.204 1.241 0l5.848 3.076-1.117-6.51c-0.074-0.433 0.069-0.874 0.384-1.18l4.732-4.609-6.542-0.956c-0.434-0.063-0.809-0.336-1.003-0.729l-2.924-5.925z"></path>
</symbol>
<symbol id="icon-watch" viewBox="0 0 32 32">
<path fill="#1ec6a7" style="fill: var(--color1, #1ec6a7)" d="M16 7c-4.971 0-9 4.029-9 9s4.029 9 9 9c4.971 0 9-4.029 9-9s-4.029-9-9-9zM5 16c0-6.075 4.925-11 11-11s11 4.925 11 11c0 6.075-4.925 11-11 11s-11-4.925-11-11z"></path>
<path fill="#1ec6a7" style="fill: var(--color1, #1ec6a7)" d="M16 9c0.552 0 1 0.448 1 1v5.382l3.447 1.724c0.494 0.247 0.694 0.848 0.447 1.342s-0.848 0.694-1.342 0.447l-4-2c-0.339-0.169-0.553-0.516-0.553-0.894v-6c0-0.552 0.448-1 1-1z"></path>
</symbol>
</defs>
</svg>
